# File created by Blade
# Date/Time:  Tue Jan 27 19:18:41 2015
# Frame Rate: 120.000 fps
#------------------------------------------------------
:FULLY-SPECIFIED
:DEGREES
2466
root 3.751324 32.275821 1.558509 -2.941609 5.829592 1.218153
Spine -0.174723 1.103107 1.208157
Head 11.536029 -13.296874 -11.935252
LeftShoulder -6.919003 -5.384524 24.465903
LeftArm -4.851850 42.288220 -102.490150
LeftForeArm 4.969890 -0.000000 17.603928
LeftHand 10.530407 -0.000000 -4.239621
LeftHandThumb1 -26.253704 0.000000 33.147579
RightShoulder -16.021141 -2.025591 -45.164475
RightArm 6.843978 50.070717 33.091647
RightForeArm 13.639288 -0.000000 7.686352
RightHand 20.750750 -0.000000 -14.443250
RightHandThumb1 -24.326973 -0.000000 -32.862282
LeftUpLeg 9.891040 -2.202821 -0.718698
LeftLeg 2.125455 -0.000000 -0.000000
LeftFoot -16.755720 10.348231 -22.610179
LeftToeBase 16.611569 -0.000000 -0.000000
RightUpLeg 10.787090 -10.647090 0.769141
RightLeg -0.317779 -0.000000 0.000000
RightFoot -14.538889 -15.901129 14.931715
RightToeBase 10.241992 -0.000000 -0.000000
2467
root 3.755630 32.276944 1.557264 -2.957928 5.866793 1.230925
Spine -0.161999 1.124613 1.270598
Head 11.577321 -13.243244 -12.032155
LeftShoulder -6.956809 -5.371226 24.426458
LeftArm -4.795690 42.125603 -102.430980
LeftForeArm 4.970676 -0.000000 17.519720
LeftHand 10.484633 -0.000000 -3.830463
LeftHandThumb1 -26.253704 0.000000 33.147579
RightShoulder -16.014386 -2.080998 -45.218923
RightArm 6.810508 50.275501 32.911990
RightForeArm 13.591694 0.000000 7.984417
RightHand 20.837363 -0.000000 -14.549245
RightHandThumb1 -24.326973 -0.000000 -32.862282
LeftUpLeg 9.895277 -2.221043 -0.736405
LeftLeg 2.126069 -0.000000 -0.000000
LeftFoot -16.742939 10.398534 -22.425183
LeftToeBase 16.878268 -0.000000 -0.000000
RightUpLeg 10.796393 -10.661224 0.749697
RightLeg -0.295346 -0.000000 0.000000
RightFoot -14.536363 -15.954061 14.891288
RightToeBase 10.076294 -0.000000 -0.000000
2468
root 3.760133 32.276890 1.559881 -3.000489 5.919744 1.257600
Spine -0.126185 1.159207 1.288133
Head 11.635542 -13.230870 -12.063687
LeftShoulder -6.977206 -5.283961 24.416412
LeftArm -4.644499 41.908271 -102.315421
LeftForeArm 4.852188 -0.000000 17.457010
LeftHand 10.688313 -0.000000 -4.712346
LeftHandThumb1 -26.253704 0.000000 33.147579
RightShoulder -16.018360 -2.125838 -45.254346
RightArm 6.711970 50.363765 32.649121
RightForeArm 13.510879 -0.000000 8.292789
RightHand 20.857076 -0.000000 -14.497090
RightHandThumb1 -24.326973 -0.000000 -32.862282
LeftUpLeg 9.932380 -2.250711 -0.771842
LeftLeg 2.143582 -0.000000 -0.000000
LeftFoot -16.711849 10.326901 -22.588305
LeftToeBase 16.639349 -0.000000 -0.000000
RightUpLeg 10.846299 -10.796268 0.687406
RightLeg -0.273621 -0.000000 0.000000
RightFoot -14.561392 -15.870969 14.902432
RightToeBase 10.087870 -0.000000 -0.000000
2469
root 3.761002 32.277877 1.557400 -3.010384 5.946432 1.263824
Spine -0.114648 1.194256 1.322547
Head 11.668575 -13.170564 -12.070235
LeftShoulder -6.995346 -5.341396 24.402545
LeftArm -4.709122 41.659697 -102.320511
LeftForeArm 5.008865 0.000000 17.427043
LeftHand 10.489355 0.000000 -3.762419
LeftHandThumb1 -26.253704 0.000000 33.147579
RightShoulder -15.997613 -2.106097 -45.286160
RightArm 6.578458 50.413356 32.339888
RightForeArm 13.582220 -0.000000 8.604107
RightHand 20.874546 -0.000000 -14.602518
RightHandThumb1 -24.326973 -0.000000 -32.862282
LeftUpLeg 9.921230 -2.237912 -0.772994
LeftLeg 2.167855 -0.000000 -0.000000
LeftFoot -16.691504 10.286052 -22.602886
LeftToeBase 16.682274 -0.000000 -0.000000
RightUpLeg 10.856504 -10.753565 0.690437
RightLeg -0.277608 -0.000000 0.000000
RightFoot -14.573076 -15.931866 14.924275
RightToeBase 10.207758 -0.000000 -0.000000
2470
root 3.765087 32.278326 1.556584 -3.030203 5.983168 1.277313
Spine -0.097901 1.226351 1.362215
Head 11.719229 -13.120276 -12.110096
LeftShoulder -7.011780 -5.387512 24.388906
LeftArm -4.775598 41.410340 -102.330727
LeftForeArm 5.222732 0.000000 17.445819
LeftHand 10.003697 -0.000000 -2.966156
LeftHandThumb1 -26.253704 0.000000 33.147579
RightShoulder -15.960008 -2.096643 -45.345166
RightArm 6.414024 50.480450 32.010878
RightForeArm 13.598011 0.000000 8.912642
RightHand 20.679490 -0.000000 -14.734008
RightHandThumb1 -24.326973 -0.000000 -32.862282
LeftUpLeg 9.936360 -2.239369 -0.788614
LeftLeg 2.158114 -0.000000 -0.000000
LeftFoot -16.684180 10.331019 -22.398016
LeftToeBase 16.969069 -0.000000 -0.000000
RightUpLeg 10.884274 -10.765221 0.669303
RightLeg -0.282089 -0.000000 0.000000
RightFoot -14.577616 -15.969178 14.915780
RightToeBase 10.058276 -0.000000 -0.000000
2471
root 3.766103 32.278587 1.556920 -3.033486 6.014375 1.290797
Spine -0.124258 1.264685 1.380398
Head 11.826850 -13.125473 -12.134788
LeftShoulder -7.030181 -5.211251 24.338177
LeftArm -4.559559 41.251801 -102.139330
LeftForeArm 5.069191 -0.000000 17.428450
LeftHand 10.114658 0.000000 -2.943878
LeftHandThumb1 -26.253704 0.000000 33.147579
RightShoulder -15.910034 -2.102207 -45.386479
RightArm 6.259912 50.659300 31.735924
RightForeArm 13.606982 -0.000000 9.315746
RightHand 20.771889 -0.000000 -14.867938
RightHandThumb1 -24.326973 -0.000000 -32.862282
LeftUpLeg 9.937534 -2.214547 -0.794268
LeftLeg 2.152531 -0.000000 -0.000000
LeftFoot -16.643973 10.275893 -22.408123
LeftToeBase 16.901358 -0.000000 -0.000000
RightUpLeg 10.888609 -10.808188 0.649289
RightLeg -0.268897 -0.000000 0.000000
RightFoot -14.585789 -15.961650 14.893421
RightToeBase 10.074567 -0.000000 -0.000000
